<svg width="652" height="606" viewBox="0 0 652 606" fill="none" xmlns="http://www.w3.org/2000/svg">
<path d="M323.879 287.633C364.66 287.633 397.646 317.993 397.646 355.357C397.646 392.721 364.66 423.082 323.879 423.082C283.097 423.082 250.111 392.721 250.111 355.357C250.112 317.993 283.098 287.633 323.879 287.633Z" fill="#264E93" stroke="#264E93"/>
<path d="M323.879 153.712C347.95 153.712 367.388 171.628 367.389 193.641C367.389 215.654 347.95 233.57 323.879 233.57C299.808 233.57 280.368 215.654 280.368 193.641C280.368 171.628 299.808 153.712 323.879 153.712Z" fill="#264E93" stroke="#264E93"/>
<path d="M98.3257 441.769C126.954 441.769 150.087 463.079 150.087 489.279C150.087 515.478 126.954 536.787 98.3257 536.787C69.6974 536.787 46.5632 515.478 46.563 489.279C46.563 463.079 69.6973 441.769 98.3257 441.769Z" fill="#264E93" stroke="#264E93"/>
<path d="M541.18 441.769C569.808 441.769 592.942 463.079 592.942 489.279C592.942 515.478 569.808 536.787 541.18 536.787C512.552 536.787 489.418 515.478 489.417 489.279C489.417 463.079 512.552 441.769 541.18 441.769Z" fill="#264E93" stroke="#264E93"/>
<line y1="-19" x2="234.44" y2="-19" transform="matrix(0.864371 -0.502855 0.567587 0.823313 103.827 501.912)" stroke="#264E93" stroke-width="38"/>
<line y1="-17.5" x2="209.103" y2="-17.5" transform="matrix(0.87497 0.484177 -0.548362 0.836241 322.984 379.742)" stroke="#264E93" stroke-width="35"/>
<line y1="-17.5" x2="193.667" y2="-17.5" transform="matrix(-0.014203 0.999899 -0.999928 -0.0119859 309.231 173.427)" stroke="#264E93" stroke-width="35"/>
<path d="M435.28 268.182V346.513H574.188C566.159 375.53 560.694 390.073 549.432 413.474C581.477 416.05 594.49 424.892 611.322 450.113C649.205 394.295 656.421 353.638 649.831 268.182H435.28Z" fill="#264E93"/>
<path d="M458.66 490.542C354.073 539.676 290.464 542.585 182.22 486.752C177.112 523.663 167.207 539.975 142.335 553.712C269.988 620.799 368.651 625.131 499.92 556.239C470.465 542.332 460.823 524.63 458.66 490.542Z" fill="#264E93"/>
<path d="M576.939 115.31L510.923 170.9C495.843 155.799 487.093 147.39 468.287 132.998L467.631 132.511C452.766 121.494 444.231 115.169 418.776 103.939C404.382 97.547 394.649 94.7096 373.39 91.3051C336.499 88.1869 309.817 85.1229 261.988 94.8725C234.846 101.385 220.096 106.276 190.185 125.596C166.633 141.816 148.464 155.894 129.957 181.007C119.496 193.951 114.499 202.094 106.577 217.646L106.227 218.394C103.365 224.511 101.633 228.214 98.4104 235.334C93.3743 248.031 91.4292 255.934 88.6974 270.709C85.5148 303.314 88.0603 311.771 91.0401 345.25C93.2489 356.223 94.7862 362.558 98.4104 374.308C102.381 382.833 109.744 400.147 123.081 418.391C83.5232 413.898 64.5219 417.75 37.8104 439.38L30.9337 429.898L24.0571 416.001L17.1804 399.576C7.18928 378.207 5.8865 364.442 2.69924 341.46C-0.602549 306.516 -1.18518 287.081 2.69924 253.021C22.1894 165.241 49.3068 125.746 118.955 68.0466C159.449 41.1937 178.933 31.6852 211.102 19.1749C231.31 11.906 247.327 8.2951 279.868 2.24842C313.028 -1.10123 331.311 -0.375858 363.763 2.24842C460.956 17.9753 507.53 42.9361 576.939 115.31Z" fill="#264E93"/>
</svg>
